<svg xmlns="http://www.w3.org/2000/svg"
  xmlns:xlink="http://www.w3.org/1999/xlink" viewBox="0 0 200 200">
  <defs>
    <path d="m120.1 204-.1-69c.2-10.1-8.6-19.2-17.4-19.5l-19.1-.4a19 19 0 0 0-17.8 18.5L64.4 185c-.2 7.5-2.5 17-1.8 22.3.2 1.7 11.4 11.8 44.9 10.1 5.4-.2 9.2-3.1 11.7-8a8 8 0 0 0 1-5.6Z" id="reuse-1"/>
    <path d="M88.4 195.8c-17.3 0-28.7-5-34-14.6s-3.9-22.7 4-39.2a135.3 135.3 0 0 1 8.6-15.3 6.3 6.3 0 0 1 9-1.6l4.5 3.3-4.8-3.6a6.3 6.3 0 0 1 1.5 8.5c-7.1 11-17.8 31.6-12 42 4.4 8.1 19.8 11.5 31 10.6v9.6q-4.1.3-7.8.3Z" id="reuse-2"/>
    <path d="M116.7 86.4A19.4 19.4 0 0 1 97.3 105h-6.5a19.4 19.4 0 0 1-19.4-19.4l-.4-3.4L69 64a19.4 19.4 0 0 1 19.4-19.4h11.3c10.7 0 17.7 8.6 17.7 19.4l-.7 21.7v.7Z" id="reuse-3"/>
    <path d="M125 43.4a16.5 16.5 0 0 0-8.8 0s-.7-4 8.2-7.6c0 0-14.6-2.7-22.2 5.6 0 0 .8-7.7 4-10.3 0 0-39.2 7.8-38.1 24.4l1.7 22.8c.1 1.5 3.5 3.5 5 3.8a3.2 3.2 0 0 0 3.8-3.3l-1-15.3s-.3-8.4 5.4-8.8 7 3.8 16.8 4c7.7.3 9.3-5.5 13.5-4.7 2.2.4 5 7.2 5 9.5 0 0 3.3-17.5 6.8-20.1Z" id="reuse-4"/>
    <path d="M91.3 74.4c0 2-1.3 3.7-3 3.7a4 4 0 0 1-3.7-3.7c0-2 2-3 3.7-3a2.8 2.8 0 0 1 3 3Z" id="reuse-5"/>
    <path d="M106.3 74.4c0 2 1.4 3.8 3 3.8a4 4 0 0 0 3.8-3.8c0-2-2-3-3.7-3a2.8 2.8 0 0 0-3 3Z" id="reuse-6"/>
  </defs>
  <defs>
    <clipPath id="clip-path">
      <circle cx="100" cy="100" r="100"/>
    </clipPath>
    <clipPath id="clip-path-3">
      <use xlink:href="#reuse-1"/>
    </clipPath>
    <clipPath id="clip-path-4">
      <use xlink:href="#reuse-2"/>
    </clipPath>
    <clipPath id="clip-path-5">
      <use xlink:href="#reuse-3"/>
    </clipPath>
    <clipPath id="clip-path-6">
      <use xlink:href="#reuse-4"/>
    </clipPath>
    <clipPath id="clip-path-7">
      <use xlink:href="#reuse-5"/>
    </clipPath>
    <clipPath id="clip-path-8">
      <use xlink:href="#reuse-6"/>
    </clipPath>
    <style>
      .cls-2{fill:#329199}.cls-12,.cls-8{opacity:.1}.cls-9{fill:#0a0a0a}.cls-11{fill:#fff}.cls-13{fill:#4460aa}.cls-14{fill:#f0f0f0}.cls-15{fill:#f9d6b9}.cls-17{fill:#fffcf8}.cls-20{fill:#f5b29c}.cls-21{fill:#6b504d}.cls-27{fill:#2d3030}.cls-28{fill:#e5a495}
    </style>
  </defs>
  <circle cx="100" cy="100" r="100" style="fill:#22ff00"/>
  <g style="clip-path:url(#clip-path)">
    <path class="cls-2" d="M83.8 104.7H39.5v123.8h44.3v-.2a8.6 8.6 0 0 0 8.2-8.7V113.3a8.6 8.6 0 0 0-8.2-8.6Z"/>
    <rect x="34.3" y="104.6" width="9.8" height="123.7" rx="4.5" style="fill:#1c848d"/>
    <g style="clip-path:url(#clip-path-3)">
      <use class="cls-11" xlink:href="#reuse-1"/>
      <path class="cls-12" d="m65 151.4 1.2 50a7.4 7.4 0 0 0 6.2 7.2l34.6 5.6a7.3 7.3 0 0 0 5-1c2.8-1.7 7-5 6.9-9-.3-6.1 1.8-48.5 2.5-51.5l-.2 64.4-42.4 9.4-22.1-14.2Z"/>
    </g>
    <path class="cls-13" d="m99.2 124.9 2.2-4.5-4.5-5-5.9 7.5 5.3 3.7 4.9 55.3 5.5 7.2 3.9-9.4-11.4-54.8z"/>
    <path class="cls-14" d="m91.9 150.8-5.5 3.1-5.7-2.7-.5-12.3 11.2-.5.5 12.4z"/>
    <path class="cls-13" transform="rotate(-2.4 86 140.1)" d="M80.2 138.7h11.3v2.4H80.2z"/>
    <path class="cls-14" d="m117.5 149.2-5 2.8-5.2-2.4-.5-11.2 10.2-.5.5 11.3z"/>
    <path class="cls-13" transform="rotate(-2.4 112.2 139.5)" d="M106.8 138.1h10.3v2.2h-10.3z"/>
    <path class="cls-15" d="M99.5 113.4c.2 4 .4 5.7-3.6 5.8 0 0-10.8-1.2-11-5.2l-.5-15.6a7.3 7.3 0 0 1 7-7.6 7.3 7.3 0 0 1 7.6 7Z"/>
    <path d="M99.2 104.7c0 1-3.2 2-7.2 2.2-4 .1-7.3-.6-7.3-1.7l-.2-4c0-1 3.2-2 7.2-2.1 4-.2 7.3.6 7.4 1.6Z" style="fill:#e3bea3"/>
    <path class="cls-17" d="m101.8 123.8-4.9-5.4 2.6-5.8s3 7.5 2.3 11.2Z"/>
    <path class="cls-17" d="m97 118.4-6.6 8.2a30.3 30.3 0 0 1-4.2-4.2 12.4 12.4 0 0 1-2-4.4l.7-4.6Z"/>
    <path d="M189.3 199.5h-74.5a2.1 2.1 0 0 1-2.1-2.2 2.1 2.1 0 0 1 2.1-2.1h74.5a2.1 2.1 0 0 1 2.1 2.1 2.1 2.1 0 0 1-2.1 2.2Z" style="fill:#c4c660"/>
    <g style="clip-path:url(#clip-path-4)">
      <use class="cls-11" xlink:href="#reuse-2"/>
      <g class="cls-8">
        <path class="cls-9" d="M67.7 125S48 158.2 54.4 173.4s21.5 19.8 32.2 19.8 4.6-6.5 1.7-7 6-4.6 6.7-4.3 8.2 10.9 8 12-7.7 7.8-9 7.8-26.3-3.4-31.4-5.8-16-28.5-16-28.5l6-27.6Z"/>
      </g>
    </g>
    <path class="cls-15" d="M96.2 186a23 23 0 0 1 5.5-.7 5 5 0 0 1 4.2 7.8 5 5 0 0 1-4.3 2.4h-5.5Z"/>
    <rect class="cls-15" x="109.9" y="76.7" width="10.2" height="10.2" rx="2.6"/>
    <rect class="cls-20" x="111.5" y="78.3" width="7.1" height="7.1" rx="1.8"/>
    <rect class="cls-21" x="110.2" y="56" width="8.3" height="22" rx="3.4" transform="rotate(179.2 114.4 67)"/>
    <g style="clip-path:url(#clip-path-5)">
      <use class="cls-15" xlink:href="#reuse-3"/>
      <path d="M117 75.6s-.6 24.4-16.3 26.3-23.7-4-27.3-17.2-7-6-7-6l1.3 35.5 36.7-5.2 19.5-19.6Z" style="opacity:.04"/>
    </g>
    <path d="M103 83.7a3.2 3.2 0 0 1-3.1 2.9h-2.4a3 3 0 0 1-2.9-3c0-1.2 1.8-11.4 2.5-15.2a1.8 1.8 0 0 1 1.7-1.4 1.8 1.8 0 0 1 1.7 1.4c.7 3.9 2.5 14 2.5 15.3Z" style="fill:#f0b89e"/>
    <path class="cls-11" d="M105.1 92a.7.7 0 0 1 .6 1c-1.1 2-3.8 5.8-6.9 5.8S93.1 94.9 92 93a.7.7 0 0 1 .6-1Z"/>
    <g style="clip-path:url(#clip-path-6)">
      <use class="cls-21" xlink:href="#reuse-4"/>
      <path class="cls-12" d="M107 30.9c-20 8-16.3 11-16.3 11s6.4-2.5 11.8-.4c0 0 2.8-4 7-5.4 6-2.1 14.5-1.8 16.1-.1 0 0-16.3 2-21 11.3 0 0 12-4.8 20.6-4.8s8.4-13 6.9-13.5-25.1 1.9-25.1 1.9ZM65.3 51.5s8.1 15.2 31.9 13 25.2-7.8 25.2-7.8l1 31.8-57.8-1.8Z"/>
    </g>
    <g style="clip-path:url(#clip-path-7)">
      <use class="cls-11" xlink:href="#reuse-5"/>
      <path class="cls-27" d="M90.3 75.8a1.9 1.9 0 1 1-1.8-2.2 2 2 0 0 1 1.8 2.2Z"/>
      <path class="cls-11" d="M89 74.8a.9.9 0 1 1-.8-1 1 1 0 0 1 .8 1Z"/>
      <path class="cls-28" d="M83.6 65.2h8.6v4.7h-8.6zM83.6 77.8h8.6v4.7h-8.6z"/>
    </g>
    <g style="clip-path:url(#clip-path-8)">
      <use class="cls-11" xlink:href="#reuse-6"/>
      <path class="cls-27" d="M107.7 75.8a1.9 1.9 0 1 0 1.9-2.2 2 2 0 0 0-1.9 2.3Z"/>
      <path class="cls-11" d="M108.3 74.9a.9.9 0 1 0 .8-1 1 1 0 0 0-.8 1Z"/>
      <path class="cls-28" transform="rotate(180 109.7 67.5)" d="M105.4 65.2h8.6v4.7h-8.6z"/>
      <path class="cls-28" transform="rotate(180 109.7 80.2)" d="M105.4 77.9h8.6v4.7h-8.6z"/>
    </g>
    <path class="cls-15" d="M75.4 83.7a2.4 2.4 0 0 1-2.3 2.6h-4.5a2.4 2.4 0 0 1-2.2-2.6v-5a2.4 2.4 0 0 1 2.2-2.7h4.5a2.4 2.4 0 0 1 2.3 2.6Z"/>
    <path class="cls-20" d="M74.7 83c0 1-.6 1.7-1.3 1.7h-2.7c-.7 0-1.3-.8-1.3-1.8v-3.5c0-1 .6-1.8 1.3-1.8h2.7c.7 0 1.3.8 1.3 1.8Z"/>
    <rect class="cls-21" x="81.5" y="65" width="10.6" height="3.9" rx="1.6" transform="rotate(166.8 86.8 67)"/>
    <rect class="cls-21" x="106.8" y="65.4" width="9.6" height="4" rx="1.1" transform="rotate(18.1 111.6 67.4)"/>
    <path class="cls-2" d="M162.4 200H87.9a2.1 2.1 0 0 1-2.1-2.2 2.1 2.1 0 0 1 2.1-2.1h74.5a2.1 2.1 0 0 1 2.1 2.1 2.1 2.1 0 0 1-2.1 2.2Z"/>
    <path d="m97.9 199.6 18.3-55.6a5.1 5.1 0 0 1 4.9-3.5h85.2a5.1 5.1 0 0 1 4.8 7l-20.8 53.2s-92.4-1.3-92.4-1Z" style="fill:#64d7c0"/>
    <path class="cls-2" d="M99.5 199.6 118 144a5.1 5.1 0 0 1 4.9-3.5H208a5.1 5.1 0 0 1 4.8 7l-20.9 53.2s-92.4-1.3-92.4-1Z"/>
  </g>
</svg>